<?xml version="1.0" encoding="utf-8"?>
<!-- Generator: Adobe Illustrator 15.0.0, SVG Export Plug-In . SVG Version: 6.00 Build 0)  -->
<!DOCTYPE svg PUBLIC "-//W3C//DTD SVG 1.1//EN" "http://www.w3.org/Graphics/SVG/1.1/DTD/svg11.dtd">
<svg version="1.1" id="Ebene_1" xmlns="http://www.w3.org/2000/svg" xmlns:xlink="http://www.w3.org/1999/xlink" x="0px" y="0px"
	 width="150px" height="64px" viewBox="0 0 150 64" enable-background="new 0 0 150 64" xml:space="preserve">
<g>
	<path fill="#A3CA6D" d="M125.023,26.521c2.102-2.044,3.019-4.846,2.742-7.55l3.588-0.641c0.35,1.313,1.031,2.558,2.045,3.6
		c0.354,0.362,0.729,0.679,1.123,0.962l-4.953,8.358c-1.5-0.677-3.215-0.743-4.762-0.191l-1.557-3.188
		c0.314-0.186,0.624-0.391,0.923-0.618C124.469,27.031,124.75,26.786,125.023,26.521 M112.148,13.293
		c-3.649,3.555-3.729,9.398-0.174,13.05c2.683,2.757,6.664,3.478,10.026,2.141l1.558,3.188c-0.365,0.23-0.713,0.501-1.037,0.815
		c-2.514,2.447-2.563,6.469-0.121,8.982c2.445,2.514,6.468,2.569,8.983,0.121c2.511-2.447,2.565-6.467,0.118-8.98
		c-0.23-0.239-0.479-0.455-0.736-0.649l4.949-8.358c3.021,1.461,6.758,0.963,9.299-1.511c3.252-3.164,3.318-8.362,0.157-11.612
		c-3.163-3.249-8.36-3.321-11.612-0.157c-1.851,1.8-2.668,4.256-2.447,6.641l-3.586,0.642c-0.387-1.509-1.16-2.937-2.324-4.133
		c-3.286-3.377-8.528-3.7-12.188-0.919C112.714,12.777,112.425,13.026,112.148,13.293"/>
</g>
<g>
	<g>
		<defs>
			<rect id="SVGID_1_" x="-35" y="-146.461" width="209" height="280.873"/>
		</defs>
		<clipPath id="SVGID_2_">
			<use xlink:href="#SVGID_1_"  overflow="visible"/>
		</clipPath>
		<path clip-path="url(#SVGID_2_)" fill="#3C4551" d="M62.672,32.423c-0.127-1.467-0.391-2.758-0.788-3.875
			c-0.398-1.117-0.983-2.084-1.754-2.901c-0.771-0.816-1.764-1.491-2.978-2.024c-1.215-0.534-2.701-0.95-4.46-1.25l-6.192-1.05
			c-0.779-0.133-1.409-0.292-1.891-0.475c-0.483-0.183-0.861-0.408-1.133-0.675c-0.274-0.267-0.471-0.601-0.588-1.002
			c-0.12-0.398-0.202-0.88-0.252-1.449c-0.056-0.632-0.027-1.166,0.083-1.601c0.113-0.432,0.341-0.774,0.688-1.023
			c0.344-0.251,0.843-0.434,1.5-0.552c0.657-0.115,1.485-0.174,2.485-0.174h4.825c1.817,0,5.757,0.098,5.757,0.098l3.334-6.697
			c0,0-4.573-0.06-5.725-0.077c-1.151-0.015-2.22-0.023-3.203-0.023h-2.774h-2.65c-2.467,0-4.539,0.224-6.216,0.675
			c-1.678,0.449-3.013,1.107-4.004,1.975c-0.99,0.867-1.666,1.918-2.023,3.149c-0.36,1.234-0.469,2.649-0.329,4.25l0.07,0.801
			c0.128,1.467,0.373,2.75,0.737,3.85c0.362,1.1,0.937,2.05,1.724,2.849c0.786,0.801,1.819,1.459,3.098,1.977
			c1.277,0.516,2.9,0.942,4.862,1.275l5.329,0.9c0.811,0.134,1.467,0.292,1.967,0.474c0.499,0.185,0.903,0.418,1.211,0.701
			c0.307,0.284,0.523,0.643,0.644,1.075c0.122,0.434,0.21,0.967,0.265,1.601c0.063,0.703,0.038,1.275-0.073,1.727
			c-0.11,0.447-0.362,0.809-0.755,1.074c-0.396,0.269-0.945,0.459-1.65,0.574c-0.707,0.115-1.61,0.176-2.71,0.176
			c-1.567,0-8.824-0.069-8.824-0.069l2.417,6.67c0,0,4.617,0.101,6.894,0.101c2.634,0,4.833-0.199,6.598-0.602
			c1.766-0.398,3.161-1.025,4.187-1.873c1.025-0.85,1.715-1.918,2.071-3.201c0.354-1.285,0.452-2.826,0.295-4.623L62.672,32.423z"/>
	</g>
	<g>
		<defs>
			<rect id="SVGID_3_" x="-35" y="-146.461" width="209" height="280.873"/>
		</defs>
		<clipPath id="SVGID_4_">
			<use xlink:href="#SVGID_3_"  overflow="visible"/>
		</clipPath>
		<path clip-path="url(#SVGID_4_)" fill="#89BA23" d="M22.545,7.818h-4.653L5.041,43.42h8.301l2.801-8.604h12.8l2.899,8.604h8.651
			c0,0-10.348-28.539-11.099-30.628C28.645,10.702,27.571,7.818,22.545,7.818 M18.143,28.369l4.351-13.251l4.448,13.251H18.143z"/>
	</g>
	<g>
		<defs>
			<rect id="SVGID_5_" x="-35" y="-146.461" width="209" height="280.873"/>
		</defs>
		<clipPath id="SVGID_6_">
			<use xlink:href="#SVGID_5_"  overflow="visible"/>
		</clipPath>
		<path clip-path="url(#SVGID_6_)" fill="#89BA23" d="M103.09,12.792c-0.75-2.09-1.822-4.974-6.849-4.974h-4.655L78.736,43.42h8.302
			l2.801-8.604h12.8l2.9,8.604h8.648C114.188,43.42,103.84,14.881,103.09,12.792 M91.837,28.369l4.351-13.251l4.451,13.251H91.837z"
			/>
	</g>
	<g>
		<defs>
			<rect id="SVGID_7_" x="-35" y="-146.461" width="209" height="280.873"/>
		</defs>
		<clipPath id="SVGID_8_">
			<use xlink:href="#SVGID_7_"  overflow="visible"/>
		</clipPath>
		<path clip-path="url(#SVGID_8_)" fill="#3C4551" d="M77.936,37.275c-0.425,0.019-0.881,0.025-1.369,0.025h0.942h-1.116
			c-0.883,0-0.787-0.058-1.312-0.178c-0.525-0.116-0.94-0.339-1.244-0.66c-0.305-0.318-0.507-0.764-0.609-1.32
			c-0.103-0.56-0.154-1.277-0.154-2.158v-9.599h7.229l2.018-6.35h-9.245l0.012-8.215l-7.753,0.007l-0.333,24.31
			c0,2.065,0.151,3.777,0.457,5.129c0.304,1.357,0.872,2.434,1.701,3.228c0.83,0.796,1.972,1.354,3.428,1.677
			c1.457,0.322,2.521,0.482,4.791,0.482h-1.301c1.528,0,2.558-0.231,2.558-0.231l2.232-6.183
			C78.695,37.236,78.359,37.262,77.936,37.275"/>
	</g>
	<g>
		<defs>
			<rect id="SVGID_9_" x="-35" y="-146.461" width="209" height="280.873"/>
		</defs>
		<clipPath id="SVGID_10_">
			<use xlink:href="#SVGID_9_"  overflow="visible"/>
		</clipPath>
		<path clip-path="url(#SVGID_10_)" fill="#89BA23" d="M4.877,52.141H2.292l-0.653,1.797H0.703l2.4-6.281h1.025l2.4,6.281h-0.99
			L4.877,52.141z M2.573,51.344h2.013L3.58,48.59L2.573,51.344z"/>
	</g>
	<g>
		<defs>
			<rect id="SVGID_11_" x="-35" y="-146.461" width="209" height="280.873"/>
		</defs>
		<clipPath id="SVGID_12_">
			<use xlink:href="#SVGID_11_"  overflow="visible"/>
		</clipPath>
		<rect x="7.173" y="47.382" clip-path="url(#SVGID_12_)" fill="#89BA23" width="0.925" height="6.556"/>
	</g>
	<g>
		<defs>
			<rect id="SVGID_13_" x="-35" y="-146.461" width="209" height="280.873"/>
		</defs>
		<clipPath id="SVGID_14_">
			<use xlink:href="#SVGID_13_"  overflow="visible"/>
		</clipPath>
		<rect x="9.122" y="47.382" clip-path="url(#SVGID_14_)" fill="#89BA23" width="0.927" height="6.556"/>
	</g>
	<g>
		<defs>
			<rect id="SVGID_15_" x="-35" y="-146.461" width="209" height="280.873"/>
		</defs>
		<clipPath id="SVGID_16_">
			<use xlink:href="#SVGID_15_"  overflow="visible"/>
		</clipPath>
		<path clip-path="url(#SVGID_16_)" fill="#89BA23" d="M14.24,53.42c-0.117,0.104-0.271,0.189-0.458,0.258
			c-0.189,0.067-0.45,0.102-0.786,0.102c-0.411,0-0.749-0.047-1.01-0.145c-0.262-0.099-0.467-0.236-0.617-0.421
			c-0.15-0.188-0.254-0.413-0.314-0.683c-0.06-0.266-0.088-0.576-0.088-0.922v-0.203c0-0.336,0.026-0.639,0.079-0.902
			c0.053-0.271,0.157-0.498,0.31-0.686c0.153-0.188,0.365-0.332,0.64-0.432c0.274-0.102,0.631-0.15,1.073-0.15
			c0.44,0,0.798,0.05,1.071,0.15c0.273,0.1,0.486,0.238,0.635,0.418c0.151,0.178,0.252,0.395,0.305,0.645
			c0.053,0.25,0.08,0.523,0.08,0.824v2.226c0,0.362-0.041,0.672-0.121,0.927c-0.078,0.254-0.204,0.459-0.375,0.616
			c-0.17,0.157-0.39,0.274-0.657,0.351c-0.269,0.07-0.587,0.108-0.958,0.108h-0.38h-0.361c-0.124,0-0.255-0.001-0.397-0.003
			c-0.14-0.004-0.3-0.008-0.476-0.016l0.176-0.768c0.294,0.012,0.549,0.018,0.764,0.018h0.666c0.218,0,0.403-0.018,0.555-0.057
			c0.153-0.037,0.279-0.102,0.377-0.193c0.096-0.09,0.165-0.217,0.207-0.375c0.041-0.158,0.061-0.362,0.061-0.608L14.24,53.42
			L14.24,53.42z M13.076,53.02c0.248,0,0.446-0.015,0.596-0.054c0.149-0.034,0.267-0.096,0.353-0.185
			c0.085-0.086,0.142-0.203,0.171-0.348c0.029-0.145,0.044-0.328,0.044-0.551v-0.425c0-0.302-0.01-0.547-0.03-0.737
			c-0.021-0.189-0.069-0.339-0.146-0.445c-0.077-0.104-0.191-0.18-0.349-0.221c-0.155-0.041-0.369-0.062-0.64-0.062
			s-0.484,0.021-0.64,0.062c-0.155,0.041-0.271,0.115-0.349,0.221c-0.076,0.106-0.125,0.256-0.145,0.445
			c-0.021,0.19-0.031,0.438-0.031,0.737v0.099c0,0.295,0.011,0.545,0.031,0.735s0.071,0.339,0.15,0.444
			c0.08,0.105,0.195,0.181,0.348,0.222C12.593,53.001,12.805,53.02,13.076,53.02"/>
	</g>
	<g>
		<defs>
			<rect id="SVGID_17_" x="-35" y="-146.461" width="209" height="280.873"/>
		</defs>
		<clipPath id="SVGID_18_">
			<use xlink:href="#SVGID_17_"  overflow="visible"/>
		</clipPath>
		<path clip-path="url(#SVGID_18_)" fill="#89BA23" d="M17.197,53.393c0,0.205-0.048,0.357-0.146,0.457
			c-0.097,0.102-0.251,0.151-0.463,0.151s-0.366-0.052-0.464-0.151c-0.096-0.1-0.145-0.252-0.145-0.457
			c0-0.207,0.049-0.361,0.145-0.461c0.098-0.1,0.252-0.147,0.464-0.147s0.366,0.049,0.463,0.147
			C17.149,53.031,17.197,53.186,17.197,53.393"/>
	</g>
	<g>
		<defs>
			<rect id="SVGID_19_" x="-35" y="-146.461" width="209" height="280.873"/>
		</defs>
		<clipPath id="SVGID_20_">
			<use xlink:href="#SVGID_19_"  overflow="visible"/>
		</clipPath>
		<path clip-path="url(#SVGID_20_)" fill="#89BA23" d="M23.04,50.436c0.276,0.047,0.508,0.113,0.696,0.199
			c0.189,0.086,0.34,0.194,0.455,0.329c0.115,0.136,0.197,0.3,0.247,0.487c0.049,0.186,0.076,0.404,0.076,0.658v0.152
			c0,0.282-0.04,0.53-0.117,0.742c-0.075,0.211-0.205,0.387-0.387,0.527c-0.183,0.145-0.424,0.246-0.723,0.316
			c-0.301,0.07-0.674,0.105-1.123,0.105h-0.799c-0.349,0-0.797-0.006-1.344-0.018l0.158-0.83c0.235,0.006,0.442,0.013,0.621,0.015
			c0.181,0.003,0.347,0.004,0.499,0.004h0.433h0.432c0.288,0,0.525-0.013,0.711-0.039c0.185-0.028,0.33-0.073,0.437-0.142
			c0.105-0.067,0.178-0.157,0.217-0.274c0.037-0.114,0.056-0.259,0.056-0.437c0-0.151-0.009-0.281-0.031-0.389
			c-0.021-0.104-0.062-0.197-0.123-0.267c-0.063-0.076-0.152-0.138-0.27-0.185c-0.118-0.045-0.273-0.086-0.467-0.123l-1.192-0.195
			c-0.294-0.045-0.537-0.114-0.728-0.205c-0.191-0.092-0.341-0.204-0.451-0.336c-0.109-0.131-0.184-0.288-0.226-0.469
			c-0.041-0.178-0.06-0.381-0.06-0.613v-0.165c0-0.255,0.038-0.481,0.118-0.685c0.081-0.205,0.208-0.377,0.389-0.522
			c0.178-0.144,0.415-0.257,0.705-0.33c0.291-0.076,0.652-0.116,1.082-0.116h0.45h0.423c0.146,0,0.308,0.002,0.481,0.006
			c0.172,0.004,0.384,0.008,0.631,0.014l-0.159,0.832c-0.417-0.014-0.774-0.021-1.068-0.021h-0.838c-0.259,0-0.472,0.015-0.64,0.039
			c-0.167,0.028-0.3,0.074-0.397,0.144c-0.097,0.065-0.162,0.154-0.199,0.265c-0.034,0.106-0.052,0.245-0.052,0.409
			c0,0.142,0.01,0.262,0.031,0.363c0.021,0.101,0.06,0.185,0.119,0.256c0.059,0.068,0.145,0.129,0.255,0.176
			c0.113,0.047,0.259,0.084,0.443,0.113L23.04,50.436z"/>
	</g>
	<g>
		<defs>
			<rect id="SVGID_21_" x="-35" y="-146.461" width="209" height="280.873"/>
		</defs>
		<clipPath id="SVGID_22_">
			<use xlink:href="#SVGID_21_"  overflow="visible"/>
		</clipPath>
		<path clip-path="url(#SVGID_22_)" fill="#89BA23" d="M25.307,48.299l0.928-0.166v1.243h1.676l-0.16,0.767h-1.517v2.119
			c0,0.193,0.009,0.354,0.031,0.477c0.02,0.123,0.06,0.22,0.119,0.281c0.058,0.067,0.143,0.111,0.251,0.133
			c0.11,0.027,0.25,0.037,0.42,0.037h0.802l-0.159,0.748h-0.636c-0.353,0-0.643-0.024-0.869-0.078
			c-0.227-0.053-0.406-0.143-0.539-0.27c-0.132-0.126-0.224-0.295-0.273-0.507c-0.051-0.213-0.076-0.478-0.076-0.796v-3.988H25.307z
			"/>
	</g>
	<g>
		<defs>
			<rect id="SVGID_23_" x="-35" y="-146.461" width="209" height="280.873"/>
		</defs>
		<clipPath id="SVGID_24_">
			<use xlink:href="#SVGID_23_"  overflow="visible"/>
		</clipPath>
		<path clip-path="url(#SVGID_24_)" fill="#89BA23" d="M30.603,54.08c-0.666,0-1.165-0.113-1.5-0.336s-0.504-0.605-0.504-1.146
			v-3.222h0.928v3.036c0,0.146,0.008,0.275,0.025,0.389c0.019,0.11,0.063,0.205,0.134,0.282c0.07,0.073,0.178,0.134,0.322,0.172
			c0.144,0.039,0.342,0.058,0.595,0.058s0.45-0.019,0.591-0.058c0.141-0.038,0.247-0.099,0.317-0.172
			c0.072-0.077,0.115-0.172,0.133-0.282c0.018-0.111,0.026-0.24,0.026-0.389v-3.036h0.926v3.222c0,0.541-0.167,0.926-0.503,1.146
			C31.759,53.967,31.262,54.08,30.603,54.08"/>
	</g>
	<g>
		<defs>
			<rect id="SVGID_25_" x="-35" y="-146.461" width="209" height="280.873"/>
		</defs>
		<clipPath id="SVGID_26_">
			<use xlink:href="#SVGID_25_"  overflow="visible"/>
		</clipPath>
		<path clip-path="url(#SVGID_26_)" fill="#89BA23" d="M35.572,53.938c-0.39,0-0.715-0.037-0.98-0.115
			c-0.265-0.082-0.478-0.211-0.636-0.385c-0.158-0.18-0.271-0.406-0.339-0.687c-0.068-0.278-0.101-0.618-0.101-1.021v-0.334
			c0-0.36,0.028-0.672,0.088-0.939c0.059-0.268,0.165-0.493,0.317-0.676c0.153-0.182,0.361-0.318,0.622-0.409
			c0.263-0.093,0.592-0.138,0.993-0.138c0.284,0,0.534,0.029,0.756,0.093c0.22,0.063,0.385,0.144,0.498,0.241v-2.188h0.926v5.797
			c0,0.271-0.062,0.465-0.186,0.584c-0.123,0.117-0.361,0.176-0.714,0.176H35.572L35.572,53.938z M36.79,53.18v-2.057
			c0-0.229-0.018-0.418-0.054-0.564c-0.035-0.146-0.096-0.263-0.185-0.348c-0.089-0.087-0.209-0.143-0.363-0.174
			c-0.152-0.029-0.346-0.044-0.582-0.044c-0.247,0-0.446,0.019-0.595,0.058c-0.15,0.038-0.267,0.109-0.349,0.213
			c-0.083,0.104-0.137,0.246-0.163,0.43c-0.027,0.181-0.04,0.416-0.04,0.703v0.336c0,0.307,0.013,0.555,0.04,0.742
			c0.026,0.188,0.079,0.336,0.163,0.44c0.083,0.104,0.2,0.177,0.353,0.211c0.153,0.035,0.356,0.054,0.609,0.054H36.79z"/>
	</g>
	<g>
		<defs>
			<rect id="SVGID_27_" x="-35" y="-146.461" width="209" height="280.873"/>
		</defs>
		<clipPath id="SVGID_28_">
			<use xlink:href="#SVGID_27_"  overflow="visible"/>
		</clipPath>
		<path clip-path="url(#SVGID_28_)" fill="#89BA23" d="M39.781,48.023c0,0.209-0.045,0.355-0.137,0.449
			c-0.091,0.09-0.241,0.137-0.445,0.137c-0.205,0-0.354-0.047-0.447-0.137c-0.091-0.094-0.136-0.24-0.136-0.449
			c0-0.205,0.045-0.354,0.136-0.445c0.092-0.092,0.242-0.137,0.447-0.137c0.205,0,0.354,0.045,0.445,0.137
			C39.736,47.671,39.781,47.818,39.781,48.023 M38.739,49.376h0.926v4.562h-0.926V49.376z"/>
	</g>
	<g>
		<defs>
			<rect id="SVGID_29_" x="-35" y="-146.461" width="209" height="280.873"/>
		</defs>
		<clipPath id="SVGID_30_">
			<use xlink:href="#SVGID_29_"  overflow="visible"/>
		</clipPath>
		<path clip-path="url(#SVGID_30_)" fill="#89BA23" d="M41.511,51.996c0,0.247,0.013,0.447,0.039,0.602
			c0.026,0.152,0.081,0.272,0.159,0.361c0.08,0.089,0.189,0.148,0.332,0.182c0.142,0.032,0.33,0.049,0.564,0.049h0.648
			c0.262,0,0.602-0.006,1.02-0.02l-0.159,0.768c-0.182,0.008-0.339,0.014-0.469,0.015c-0.129,0.004-0.249,0.004-0.356,0.004h-0.324
			h-0.361c-0.417,0-0.758-0.048-1.019-0.146c-0.263-0.096-0.468-0.232-0.618-0.414c-0.151-0.18-0.251-0.396-0.305-0.653
			c-0.052-0.255-0.08-0.539-0.08-0.851v-0.496c0-0.336,0.028-0.637,0.084-0.902c0.055-0.268,0.159-0.494,0.308-0.682
			c0.151-0.184,0.36-0.326,0.627-0.428c0.268-0.098,0.616-0.148,1.045-0.148c0.395,0,0.716,0.045,0.968,0.137
			c0.249,0.091,0.446,0.215,0.59,0.367c0.144,0.158,0.243,0.338,0.295,0.543c0.054,0.201,0.08,0.414,0.08,0.629v0.131
			c0,0.214-0.012,0.379-0.036,0.505c-0.023,0.123-0.062,0.22-0.114,0.286c-0.054,0.068-0.12,0.111-0.199,0.133
			s-0.175,0.03-0.288,0.03L41.511,51.996L41.511,51.996z M42.605,49.965c-0.235,0-0.422,0.021-0.564,0.055
			c-0.142,0.035-0.252,0.104-0.332,0.199c-0.079,0.1-0.133,0.23-0.159,0.401c-0.026,0.171-0.039,0.392-0.039,0.661h2.197v-0.299
			c0-0.194-0.016-0.356-0.048-0.489c-0.031-0.134-0.09-0.237-0.176-0.315c-0.086-0.074-0.199-0.13-0.34-0.162
			C43.002,49.982,42.822,49.965,42.605,49.965"/>
	</g>
	<g>
		<defs>
			<rect id="SVGID_31_" x="-35" y="-146.461" width="209" height="280.873"/>
		</defs>
		<clipPath id="SVGID_32_">
			<use xlink:href="#SVGID_31_"  overflow="visible"/>
		</clipPath>
		<path clip-path="url(#SVGID_32_)" fill="#89BA23" d="M45.482,53.938v-3.123c0-0.262,0.042-0.49,0.123-0.676
			c0.082-0.187,0.199-0.334,0.35-0.449c0.15-0.115,0.332-0.195,0.543-0.252c0.21-0.053,0.446-0.08,0.706-0.08h0.652
			c0.153,0,0.279,0.004,0.38,0.011l-0.16,0.769h-0.088c-0.054,0-0.118-0.002-0.195-0.006c-0.076-0.002-0.158-0.002-0.247-0.002
			H47.29c-0.205,0-0.368,0.018-0.485,0.057c-0.118,0.037-0.206,0.096-0.264,0.172c-0.06,0.074-0.097,0.17-0.109,0.281
			c-0.017,0.112-0.024,0.238-0.024,0.379v2.922h-0.926V53.938z"/>
	</g>
	<g>
		<defs>
			<rect id="SVGID_33_" x="-35" y="-146.461" width="209" height="280.873"/>
		</defs>
		<clipPath id="SVGID_34_">
			<use xlink:href="#SVGID_33_"  overflow="visible"/>
		</clipPath>
		<path clip-path="url(#SVGID_34_)" fill="#89BA23" d="M49.524,51.996c0,0.247,0.013,0.447,0.04,0.602
			c0.026,0.152,0.079,0.272,0.159,0.361c0.078,0.089,0.19,0.148,0.331,0.182c0.141,0.032,0.33,0.049,0.564,0.049h0.649
			c0.261,0,0.601-0.006,1.019-0.02l-0.159,0.768c-0.183,0.008-0.338,0.014-0.468,0.015c-0.13,0.004-0.248,0.004-0.356,0.004H50.98
			h-0.362c-0.418,0-0.758-0.048-1.02-0.146c-0.262-0.096-0.467-0.232-0.618-0.414c-0.149-0.18-0.251-0.396-0.304-0.653
			c-0.053-0.255-0.079-0.539-0.079-0.851v-0.496c0-0.336,0.028-0.637,0.083-0.902c0.057-0.268,0.159-0.494,0.309-0.682
			c0.149-0.184,0.359-0.326,0.626-0.428c0.268-0.098,0.617-0.148,1.047-0.148c0.394,0,0.715,0.045,0.965,0.137
			c0.25,0.091,0.449,0.215,0.592,0.367c0.144,0.158,0.242,0.338,0.296,0.543c0.052,0.201,0.079,0.414,0.079,0.629v0.131
			c0,0.214-0.013,0.379-0.036,0.505c-0.024,0.123-0.062,0.22-0.115,0.286c-0.053,0.068-0.12,0.111-0.198,0.133
			c-0.079,0.021-0.175,0.03-0.287,0.03L49.524,51.996L49.524,51.996z M50.618,49.965c-0.235,0-0.424,0.021-0.564,0.055
			c-0.141,0.035-0.253,0.104-0.331,0.199c-0.08,0.1-0.133,0.23-0.159,0.401c-0.027,0.171-0.04,0.392-0.04,0.661h2.198v-0.299
			c0-0.194-0.016-0.356-0.049-0.489c-0.032-0.134-0.09-0.237-0.177-0.315c-0.084-0.074-0.198-0.13-0.339-0.162
			C51.015,49.982,50.835,49.965,50.618,49.965"/>
	</g>
	<g>
		<defs>
			<rect id="SVGID_35_" x="-35" y="-146.461" width="209" height="280.873"/>
		</defs>
		<clipPath id="SVGID_36_">
			<use xlink:href="#SVGID_35_"  overflow="visible"/>
		</clipPath>
		<path clip-path="url(#SVGID_36_)" fill="#89BA23" d="M53.495,53.938v-3.221c0-0.527,0.163-0.908,0.49-1.138
			c0.328-0.229,0.837-0.345,1.531-0.345c0.695,0,1.206,0.115,1.533,0.345c0.326,0.229,0.489,0.61,0.489,1.138v3.221H56.61v-3.035
			c0-0.146-0.008-0.275-0.026-0.387c-0.017-0.111-0.062-0.207-0.132-0.283c-0.07-0.076-0.179-0.133-0.326-0.172
			c-0.147-0.037-0.35-0.058-0.61-0.058c-0.257,0-0.461,0.021-0.608,0.058c-0.147,0.039-0.256,0.096-0.328,0.172
			c-0.07,0.076-0.112,0.172-0.13,0.283c-0.018,0.11-0.027,0.241-0.027,0.387v3.035H53.495z"/>
	</g>
	<g>
		<defs>
			<rect id="SVGID_37_" x="-35" y="-146.461" width="209" height="280.873"/>
		</defs>
		<clipPath id="SVGID_38_">
			<use xlink:href="#SVGID_37_"  overflow="visible"/>
		</clipPath>
		<path clip-path="url(#SVGID_38_)" fill="#89BA23" d="M60.511,53.938c-0.387,0-0.713-0.037-0.979-0.115
			c-0.265-0.082-0.476-0.211-0.635-0.385c-0.158-0.18-0.273-0.406-0.34-0.687s-0.102-0.618-0.102-1.021v-0.334
			c0-0.36,0.03-0.672,0.088-0.939c0.059-0.268,0.165-0.493,0.318-0.676c0.153-0.182,0.359-0.318,0.623-0.409
			c0.263-0.093,0.593-0.138,0.992-0.138c0.283,0,0.534,0.029,0.755,0.093s0.387,0.144,0.499,0.241v-2.188h0.926v5.797
			c0,0.271-0.063,0.465-0.185,0.584c-0.124,0.117-0.362,0.176-0.715,0.176H60.511L60.511,53.938z M61.73,53.18v-2.057
			c0-0.229-0.018-0.418-0.053-0.564c-0.036-0.146-0.098-0.263-0.185-0.348c-0.089-0.087-0.209-0.143-0.362-0.174
			c-0.154-0.029-0.347-0.044-0.584-0.044c-0.246,0-0.445,0.019-0.595,0.058c-0.15,0.038-0.266,0.109-0.347,0.213
			c-0.084,0.104-0.138,0.246-0.164,0.43c-0.027,0.181-0.04,0.416-0.04,0.703v0.336c0,0.307,0.013,0.555,0.04,0.742
			c0.026,0.188,0.08,0.336,0.164,0.44c0.082,0.104,0.199,0.177,0.352,0.211c0.152,0.035,0.356,0.054,0.608,0.054H61.73z"/>
	</g>
	<g>
		<defs>
			<rect id="SVGID_39_" x="-35" y="-146.461" width="209" height="280.873"/>
		</defs>
		<clipPath id="SVGID_40_">
			<use xlink:href="#SVGID_39_"  overflow="visible"/>
		</clipPath>
		<path clip-path="url(#SVGID_40_)" fill="#89BA23" d="M64.501,51.996c0,0.247,0.013,0.447,0.039,0.602
			c0.026,0.152,0.079,0.272,0.159,0.361c0.08,0.089,0.19,0.148,0.331,0.182c0.141,0.032,0.329,0.049,0.564,0.049h0.65
			c0.261,0,0.601-0.006,1.019-0.02l-0.16,0.768c-0.182,0.008-0.339,0.014-0.468,0.015c-0.129,0.004-0.248,0.004-0.357,0.004h-0.32
			h-0.364c-0.417,0-0.758-0.048-1.019-0.146c-0.263-0.096-0.468-0.232-0.618-0.414c-0.152-0.18-0.252-0.396-0.305-0.653
			c-0.052-0.255-0.078-0.539-0.078-0.851v-0.496c0-0.336,0.027-0.637,0.083-0.902c0.055-0.268,0.159-0.494,0.309-0.682
			c0.15-0.184,0.359-0.326,0.626-0.428c0.269-0.098,0.617-0.148,1.046-0.148c0.394,0,0.716,0.045,0.967,0.137
			c0.249,0.091,0.446,0.215,0.591,0.367c0.144,0.158,0.243,0.338,0.296,0.543c0.052,0.201,0.08,0.414,0.08,0.629v0.131
			c0,0.214-0.012,0.379-0.037,0.505c-0.023,0.123-0.061,0.22-0.113,0.286c-0.054,0.068-0.121,0.111-0.2,0.133
			c-0.08,0.021-0.175,0.03-0.287,0.03L64.501,51.996L64.501,51.996z M65.595,49.965c-0.236,0-0.424,0.021-0.564,0.055
			c-0.141,0.035-0.251,0.104-0.331,0.199c-0.08,0.1-0.133,0.23-0.159,0.401s-0.039,0.392-0.039,0.661h2.196v-0.299
			c0-0.194-0.017-0.356-0.048-0.489c-0.032-0.134-0.091-0.237-0.177-0.315c-0.085-0.074-0.199-0.13-0.339-0.162
			C65.993,49.982,65.812,49.965,65.595,49.965"/>
	</g>
	<g>
		<defs>
			<rect id="SVGID_41_" x="-35" y="-146.461" width="209" height="280.873"/>
		</defs>
		<clipPath id="SVGID_42_">
			<use xlink:href="#SVGID_41_"  overflow="visible"/>
		</clipPath>
		<path clip-path="url(#SVGID_42_)" fill="#89BA23" d="M68.473,53.938v-3.221c0-0.527,0.162-0.908,0.488-1.138
			c0.327-0.229,0.837-0.345,1.532-0.345c0.694,0,1.205,0.115,1.532,0.345c0.326,0.229,0.49,0.61,0.49,1.138v3.221h-0.926v-3.035
			c0-0.146-0.01-0.275-0.027-0.387c-0.018-0.111-0.063-0.207-0.134-0.283c-0.07-0.076-0.179-0.133-0.327-0.172
			c-0.146-0.037-0.349-0.058-0.608-0.058c-0.259,0-0.463,0.021-0.611,0.058c-0.146,0.039-0.254,0.096-0.324,0.172
			c-0.071,0.076-0.116,0.172-0.133,0.283c-0.019,0.11-0.026,0.241-0.026,0.387v3.035H68.473z"/>
	</g>
	<g>
		<defs>
			<rect id="SVGID_43_" x="-35" y="-146.461" width="209" height="280.873"/>
		</defs>
		<clipPath id="SVGID_44_">
			<use xlink:href="#SVGID_43_"  overflow="visible"/>
		</clipPath>
		<path clip-path="url(#SVGID_44_)" fill="#89BA23" d="M77.332,53.18c0,0.282-0.064,0.479-0.193,0.594
			c-0.13,0.109-0.365,0.164-0.707,0.164h-1.324c-0.617,0-1.059-0.111-1.327-0.338c-0.269-0.227-0.403-0.568-0.403-1.02v-0.193
			c0-0.494,0.146-0.849,0.437-1.06c0.292-0.212,0.747-0.319,1.365-0.319c0.351,0,0.628,0.027,0.829,0.084
			c0.199,0.057,0.347,0.118,0.441,0.182v-0.266c0-0.146-0.011-0.273-0.031-0.382c-0.021-0.11-0.069-0.2-0.149-0.274
			s-0.192-0.131-0.344-0.168c-0.15-0.037-0.354-0.056-0.613-0.056c-0.247,0-0.512,0-0.791,0.002
			c-0.279,0.005-0.52,0.007-0.719,0.013l0.167-0.767c0.165-0.006,0.368-0.011,0.608-0.015c0.241-0.002,0.486-0.004,0.733-0.004
			c0.71,0,1.226,0.127,1.544,0.375c0.316,0.25,0.476,0.619,0.476,1.109L77.332,53.18L77.332,53.18z M74.244,52.572
			c0,0.205,0.063,0.359,0.185,0.459c0.124,0.105,0.351,0.158,0.679,0.158h1.342v-0.813c0-0.111-0.013-0.21-0.034-0.292
			c-0.023-0.083-0.07-0.149-0.143-0.198c-0.07-0.052-0.174-0.086-0.31-0.111c-0.135-0.021-0.315-0.033-0.538-0.033h-0.203
			c-0.194,0-0.354,0.01-0.481,0.029c-0.126,0.021-0.228,0.057-0.301,0.106c-0.074,0.05-0.125,0.115-0.154,0.196
			c-0.029,0.08-0.043,0.188-0.043,0.311V52.572z"/>
	</g>
	<g>
		<defs>
			<rect id="SVGID_45_" x="-35" y="-146.461" width="209" height="280.873"/>
		</defs>
		<clipPath id="SVGID_46_">
			<use xlink:href="#SVGID_45_"  overflow="visible"/>
		</clipPath>
		<path clip-path="url(#SVGID_46_)" fill="#89BA23" d="M80.359,54.08c-0.666,0-1.164-0.113-1.5-0.336s-0.502-0.605-0.502-1.146
			v-3.222h0.925v3.036c0,0.146,0.009,0.275,0.028,0.389c0.016,0.11,0.062,0.205,0.131,0.282c0.07,0.073,0.178,0.134,0.322,0.172
			c0.144,0.039,0.344,0.058,0.596,0.058s0.449-0.019,0.594-0.058c0.141-0.038,0.244-0.099,0.316-0.172
			c0.067-0.077,0.113-0.172,0.131-0.282c0.019-0.111,0.026-0.24,0.026-0.389v-3.036h0.925v3.222c0,0.541-0.164,0.926-0.502,1.146
			C81.518,53.967,81.021,54.08,80.359,54.08"/>
	</g>
	<g>
		<defs>
			<rect id="SVGID_47_" x="-35" y="-146.461" width="209" height="280.873"/>
		</defs>
		<clipPath id="SVGID_48_">
			<use xlink:href="#SVGID_47_"  overflow="visible"/>
		</clipPath>
		<path clip-path="url(#SVGID_48_)" fill="#89BA23" d="M85.788,51.247c0.265,0.024,0.479,0.077,0.644,0.163
			c0.164,0.087,0.289,0.189,0.379,0.309c0.09,0.121,0.148,0.252,0.181,0.389c0.032,0.138,0.05,0.274,0.05,0.402v0.122
			c0,0.417-0.15,0.745-0.45,0.978c-0.301,0.229-0.764,0.347-1.385,0.347c-0.265,0-0.573,0-0.922-0.004
			c-0.351-0.001-0.703-0.007-1.058-0.015l0.16-0.768c0.316,0.01,0.641,0.012,0.971,0.014c0.332,0.004,0.627,0.006,0.893,0.006
			c0.34,0,0.572-0.039,0.7-0.115c0.128-0.075,0.19-0.227,0.19-0.451c0-0.068-0.007-0.135-0.022-0.195
			c-0.013-0.064-0.044-0.117-0.088-0.164c-0.044-0.048-0.107-0.086-0.188-0.119c-0.084-0.033-0.195-0.055-0.336-0.066l-1.061-0.098
			c-0.217-0.018-0.401-0.063-0.557-0.137c-0.15-0.074-0.277-0.164-0.369-0.273c-0.096-0.108-0.164-0.229-0.207-0.365
			c-0.043-0.137-0.065-0.273-0.065-0.415v-0.149c0-0.4,0.137-0.713,0.414-0.939c0.274-0.229,0.729-0.342,1.358-0.342h0.883
			c0.307,0,0.649,0.006,1.033,0.02l-0.16,0.768c-0.246-0.004-0.465-0.012-0.652-0.014s-0.354-0.004-0.499-0.004h-0.39h-0.313
			c-0.301,0-0.509,0.036-0.625,0.109c-0.119,0.074-0.177,0.203-0.177,0.395c0,0.075,0.007,0.143,0.024,0.201
			c0.014,0.061,0.039,0.109,0.084,0.15s0.11,0.078,0.193,0.104c0.086,0.029,0.198,0.052,0.342,0.063L85.788,51.247z"/>
	</g>
	<g>
		<defs>
			<rect id="SVGID_49_" x="-35" y="-146.461" width="209" height="280.873"/>
		</defs>
		<clipPath id="SVGID_50_">
			<use xlink:href="#SVGID_49_"  overflow="visible"/>
		</clipPath>
		<path clip-path="url(#SVGID_50_)" fill="#89BA23" d="M90.368,51.247c0.265,0.024,0.479,0.077,0.644,0.163
			c0.166,0.087,0.291,0.189,0.379,0.309c0.09,0.121,0.148,0.252,0.182,0.389c0.033,0.138,0.047,0.274,0.047,0.402v0.122
			c0,0.417-0.146,0.745-0.446,0.978c-0.301,0.229-0.764,0.347-1.385,0.347c-0.269,0-0.573,0-0.925-0.004
			c-0.352-0.001-0.702-0.007-1.055-0.015l0.157-0.768c0.318,0.01,0.642,0.012,0.972,0.014c0.33,0.004,0.627,0.006,0.894,0.006
			c0.341,0,0.573-0.039,0.701-0.115c0.125-0.075,0.188-0.227,0.188-0.451c0-0.068-0.01-0.135-0.021-0.195
			c-0.016-0.064-0.045-0.117-0.092-0.164c-0.043-0.048-0.104-0.086-0.188-0.119c-0.082-0.033-0.191-0.055-0.334-0.066l-1.061-0.098
			c-0.217-0.018-0.402-0.063-0.556-0.137s-0.278-0.164-0.37-0.273c-0.096-0.108-0.166-0.229-0.209-0.365
			c-0.045-0.137-0.065-0.273-0.065-0.415v-0.149c0-0.4,0.14-0.713,0.419-0.939c0.271-0.229,0.726-0.342,1.354-0.342h0.885
			c0.307,0,0.65,0.006,1.033,0.02l-0.16,0.768c-0.248-0.004-0.465-0.012-0.652-0.014c-0.189-0.002-0.355-0.004-0.499-0.004h-0.39
			h-0.313c-0.3,0-0.51,0.036-0.626,0.109c-0.117,0.074-0.179,0.203-0.179,0.395c0,0.075,0.009,0.143,0.023,0.201
			c0.016,0.061,0.045,0.109,0.088,0.15c0.045,0.041,0.109,0.078,0.193,0.104c0.085,0.029,0.199,0.052,0.341,0.063L90.368,51.247z"/>
	</g>
	<g>
		<defs>
			<rect id="SVGID_51_" x="-35" y="-146.461" width="209" height="280.873"/>
		</defs>
		<clipPath id="SVGID_52_">
			<use xlink:href="#SVGID_51_"  overflow="visible"/>
		</clipPath>
		<path clip-path="url(#SVGID_52_)" fill="#89BA23" d="M94.561,50.126c-0.242,0-0.438,0.013-0.593,0.04
			c-0.151,0.027-0.272,0.087-0.362,0.178c-0.086,0.092-0.147,0.219-0.181,0.391c-0.03,0.172-0.05,0.4-0.05,0.688v0.47
			c0,0.289,0.02,0.517,0.057,0.688c0.033,0.17,0.098,0.301,0.188,0.394c0.092,0.088,0.213,0.148,0.364,0.176
			c0.154,0.025,0.346,0.041,0.574,0.041c0.322,0,0.577-0.004,0.767-0.006c0.183-0.002,0.346-0.006,0.487-0.015l-0.158,0.769
			c-0.152,0.008-0.336,0.013-0.547,0.014c-0.215,0.004-0.396,0.004-0.549,0.004c-0.395,0-0.727-0.035-0.996-0.105
			c-0.271-0.07-0.492-0.188-0.66-0.352c-0.166-0.165-0.286-0.378-0.358-0.643c-0.074-0.26-0.11-0.582-0.11-0.963v-0.471
			c0-0.384,0.036-0.703,0.11-0.966c0.072-0.261,0.192-0.476,0.358-0.64c0.168-0.166,0.389-0.283,0.66-0.354
			c0.271-0.069,0.603-0.106,0.996-0.106c0.172,0,0.367,0.002,0.586,0.004c0.221,0.004,0.438,0.014,0.648,0.023l-0.157,0.768
			c-0.241-0.012-0.446-0.018-0.608-0.021C94.859,50.128,94.706,50.126,94.561,50.126"/>
	</g>
	<g>
		<defs>
			<rect id="SVGID_53_" x="-35" y="-146.461" width="209" height="280.873"/>
		</defs>
		<clipPath id="SVGID_54_">
			<use xlink:href="#SVGID_53_"  overflow="visible"/>
		</clipPath>
		<path clip-path="url(#SVGID_54_)" fill="#89BA23" d="M96.695,53.938v-6.556h0.929v2.259c0.086-0.1,0.231-0.193,0.435-0.279
			c0.203-0.084,0.496-0.125,0.877-0.125c0.272,0,0.519,0.023,0.739,0.078c0.22,0.054,0.409,0.139,0.567,0.256
			c0.162,0.119,0.283,0.27,0.367,0.459s0.129,0.418,0.129,0.689v3.221h-0.928v-3.035c0-0.146-0.01-0.276-0.027-0.389
			c-0.018-0.109-0.061-0.205-0.131-0.283c-0.071-0.076-0.174-0.133-0.311-0.17c-0.135-0.037-0.32-0.059-0.558-0.059
			c-0.24,0-0.435,0.021-0.586,0.063c-0.15,0.041-0.267,0.107-0.354,0.201c-0.085,0.096-0.145,0.217-0.177,0.362
			c-0.031,0.146-0.046,0.329-0.046,0.548v2.762h-0.927V53.938z"/>
	</g>
	<g>
		<defs>
			<rect id="SVGID_55_" x="-35" y="-146.461" width="209" height="280.873"/>
		</defs>
		<clipPath id="SVGID_56_">
			<use xlink:href="#SVGID_55_"  overflow="visible"/>
		</clipPath>
		<path clip-path="url(#SVGID_56_)" fill="#89BA23" d="M103.766,54.08c-0.666,0-1.166-0.113-1.502-0.336
			c-0.334-0.223-0.503-0.605-0.503-1.146v-3.222h0.927v3.036c0,0.146,0.011,0.275,0.026,0.389c0.019,0.11,0.062,0.205,0.132,0.282
			c0.071,0.073,0.178,0.134,0.322,0.172c0.146,0.039,0.343,0.058,0.598,0.058c0.254,0,0.447-0.019,0.59-0.058
			c0.142-0.038,0.246-0.099,0.317-0.172c0.071-0.077,0.114-0.172,0.132-0.282c0.021-0.111,0.027-0.24,0.027-0.389v-3.036h0.926
			v3.222c0,0.541-0.166,0.926-0.502,1.146C104.92,53.967,104.424,54.08,103.766,54.08"/>
	</g>
	<g>
		<defs>
			<rect id="SVGID_57_" x="-35" y="-146.461" width="209" height="280.873"/>
		</defs>
		<clipPath id="SVGID_58_">
			<use xlink:href="#SVGID_57_"  overflow="visible"/>
		</clipPath>
		<path clip-path="url(#SVGID_58_)" fill="#89BA23" d="M109.191,51.247c0.265,0.024,0.479,0.077,0.645,0.163
			c0.165,0.087,0.291,0.189,0.379,0.309c0.088,0.121,0.148,0.252,0.182,0.389c0.031,0.138,0.047,0.274,0.047,0.402v0.122
			c0,0.417-0.147,0.745-0.447,0.978c-0.301,0.229-0.764,0.347-1.385,0.347c-0.269,0-0.574,0-0.924-0.004
			c-0.351-0.001-0.701-0.007-1.054-0.015l0.158-0.768c0.317,0.01,0.64,0.012,0.972,0.014c0.327,0.004,0.625,0.006,0.894,0.006
			c0.339,0,0.571-0.039,0.696-0.115c0.129-0.075,0.191-0.227,0.191-0.451c0-0.068-0.008-0.135-0.02-0.195
			c-0.019-0.064-0.047-0.117-0.092-0.164c-0.045-0.048-0.106-0.086-0.19-0.119c-0.082-0.033-0.192-0.055-0.334-0.066l-1.06-0.098
			c-0.216-0.018-0.402-0.063-0.556-0.137s-0.276-0.164-0.371-0.273c-0.093-0.108-0.164-0.229-0.208-0.365
			c-0.043-0.137-0.066-0.273-0.066-0.415v-0.149c0-0.4,0.141-0.713,0.416-0.939c0.275-0.229,0.73-0.342,1.358-0.342h0.884
			c0.305,0,0.648,0.006,1.031,0.02l-0.16,0.768c-0.244-0.004-0.463-0.012-0.65-0.014s-0.355-0.004-0.498-0.004h-0.389h-0.313
			c-0.302,0-0.511,0.036-0.625,0.109c-0.118,0.074-0.179,0.203-0.179,0.395c0,0.075,0.008,0.143,0.022,0.201
			c0.013,0.061,0.045,0.109,0.089,0.15c0.042,0.041,0.106,0.078,0.192,0.104c0.085,0.029,0.198,0.052,0.339,0.063L109.191,51.247z"
			/>
	</g>
	<g>
		<defs>
			<rect id="SVGID_59_" x="-35" y="-146.461" width="209" height="280.873"/>
		</defs>
		<clipPath id="SVGID_60_">
			<use xlink:href="#SVGID_59_"  overflow="visible"/>
		</clipPath>
		<path clip-path="url(#SVGID_60_)" fill="#89BA23" d="M113.773,51.247c0.266,0.024,0.478,0.077,0.646,0.163
			c0.162,0.087,0.29,0.189,0.379,0.309c0.087,0.121,0.146,0.252,0.181,0.389c0.031,0.138,0.049,0.274,0.049,0.402v0.122
			c0,0.417-0.152,0.745-0.451,0.978c-0.301,0.229-0.762,0.347-1.387,0.347c-0.266,0-0.57,0-0.924-0.004
			c-0.347-0.001-0.699-0.007-1.055-0.015l0.161-0.768c0.317,0.01,0.644,0.012,0.972,0.014c0.329,0.004,0.626,0.006,0.891,0.006
			c0.34,0,0.576-0.039,0.703-0.115c0.125-0.075,0.188-0.227,0.188-0.451c0-0.068-0.005-0.135-0.021-0.195
			c-0.013-0.064-0.043-0.117-0.088-0.164c-0.043-0.048-0.105-0.086-0.188-0.119s-0.194-0.055-0.335-0.066l-1.061-0.098
			c-0.216-0.018-0.404-0.063-0.557-0.137c-0.152-0.076-0.275-0.164-0.371-0.273c-0.093-0.108-0.161-0.229-0.206-0.365
			c-0.045-0.137-0.065-0.273-0.065-0.415v-0.149c0-0.4,0.139-0.713,0.414-0.939c0.277-0.229,0.73-0.342,1.359-0.342h0.883
			c0.305,0,0.648,0.006,1.03,0.02l-0.158,0.768c-0.247-0.004-0.465-0.012-0.651-0.014c-0.188-0.002-0.354-0.004-0.498-0.004h-0.389
			h-0.313c-0.3,0-0.509,0.036-0.628,0.109c-0.116,0.074-0.176,0.203-0.176,0.395c0,0.075,0.008,0.143,0.021,0.201
			c0.016,0.061,0.045,0.109,0.09,0.15c0.043,0.041,0.106,0.078,0.193,0.104c0.084,0.029,0.197,0.052,0.339,0.063L113.773,51.247z"/>
	</g>
	<g>
		<defs>
			<rect id="SVGID_61_" x="-35" y="-146.461" width="209" height="280.873"/>
		</defs>
		<clipPath id="SVGID_62_">
			<use xlink:href="#SVGID_61_"  overflow="visible"/>
		</clipPath>
		<path clip-path="url(#SVGID_62_)" fill="#89BA23" d="M120.1,53.938c-0.389,0-0.713-0.037-0.979-0.115
			c-0.267-0.082-0.479-0.211-0.634-0.385c-0.16-0.18-0.274-0.406-0.342-0.687c-0.068-0.28-0.104-0.618-0.104-1.021v-0.334
			c0-0.36,0.032-0.672,0.09-0.939c0.059-0.268,0.164-0.493,0.316-0.676c0.152-0.182,0.361-0.318,0.623-0.409
			c0.261-0.093,0.592-0.138,0.992-0.138c0.285,0,0.535,0.029,0.754,0.093c0.223,0.063,0.39,0.144,0.5,0.241v-2.188h0.929v5.797
			c0,0.271-0.063,0.465-0.187,0.584c-0.125,0.117-0.363,0.176-0.719,0.176H120.1L120.1,53.938z M121.318,53.18v-2.057
			c0-0.229-0.021-0.418-0.055-0.564c-0.035-0.146-0.097-0.263-0.185-0.348c-0.087-0.087-0.21-0.143-0.363-0.174
			c-0.149-0.029-0.345-0.044-0.582-0.044c-0.247,0-0.444,0.019-0.596,0.058c-0.149,0.038-0.267,0.109-0.349,0.213
			s-0.135,0.246-0.164,0.43c-0.026,0.181-0.039,0.416-0.039,0.703v0.336c0,0.307,0.013,0.555,0.039,0.742
			c0.029,0.188,0.082,0.336,0.164,0.44s0.199,0.177,0.353,0.211c0.153,0.035,0.354,0.054,0.608,0.054H121.318z"/>
	</g>
	<g>
		<defs>
			<rect id="SVGID_63_" x="-35" y="-146.461" width="209" height="280.873"/>
		</defs>
		<clipPath id="SVGID_64_">
			<use xlink:href="#SVGID_63_"  overflow="visible"/>
		</clipPath>
		<path clip-path="url(#SVGID_64_)" fill="#89BA23" d="M124.09,51.996c0,0.247,0.014,0.447,0.037,0.602
			c0.028,0.152,0.081,0.272,0.16,0.361c0.08,0.089,0.191,0.148,0.331,0.182c0.141,0.032,0.33,0.049,0.563,0.049h0.648
			c0.264,0,0.604-0.006,1.02-0.02l-0.158,0.768c-0.184,0.008-0.336,0.014-0.469,0.015c-0.127,0.004-0.248,0.004-0.357,0.004h-0.319
			h-0.362c-0.418,0-0.758-0.048-1.02-0.146c-0.262-0.096-0.469-0.232-0.617-0.414c-0.148-0.18-0.252-0.396-0.305-0.653
			c-0.053-0.255-0.08-0.539-0.08-0.851v-0.496c0-0.336,0.029-0.637,0.085-0.902c0.053-0.268,0.158-0.494,0.308-0.682
			c0.149-0.184,0.359-0.326,0.627-0.428c0.27-0.098,0.616-0.148,1.049-0.148c0.392,0,0.715,0.045,0.966,0.137
			c0.249,0.091,0.444,0.215,0.59,0.367c0.144,0.158,0.243,0.338,0.298,0.543c0.052,0.201,0.078,0.414,0.078,0.629v0.131
			c0,0.214-0.014,0.379-0.037,0.505c-0.021,0.123-0.063,0.22-0.115,0.286c-0.049,0.068-0.117,0.111-0.197,0.133
			c-0.078,0.021-0.176,0.03-0.287,0.03L124.09,51.996L124.09,51.996z M125.184,49.965c-0.234,0-0.425,0.021-0.564,0.055
			c-0.141,0.035-0.251,0.104-0.331,0.199c-0.079,0.1-0.132,0.23-0.16,0.401c-0.022,0.171-0.037,0.392-0.037,0.661h2.197v-0.299
			c0-0.194-0.017-0.356-0.049-0.489c-0.033-0.134-0.093-0.237-0.177-0.315c-0.086-0.074-0.201-0.13-0.34-0.162
			C125.58,49.982,125.4,49.965,125.184,49.965"/>
	</g>
	<g>
		<defs>
			<rect id="SVGID_65_" x="-35" y="-146.461" width="209" height="280.873"/>
		</defs>
		<clipPath id="SVGID_66_">
			<use xlink:href="#SVGID_65_"  overflow="visible"/>
		</clipPath>
		<path clip-path="url(#SVGID_66_)" fill="#89BA23" d="M128.063,53.938v-3.123c0-0.262,0.041-0.49,0.123-0.676
			c0.08-0.187,0.196-0.334,0.348-0.449c0.15-0.115,0.33-0.195,0.542-0.252c0.212-0.053,0.446-0.08,0.706-0.08h0.654
			c0.151,0,0.276,0.004,0.379,0.011l-0.158,0.769h-0.09c-0.053,0-0.115-0.002-0.192-0.006c-0.079-0.002-0.159-0.002-0.248-0.002
			h-0.256c-0.206,0-0.367,0.018-0.485,0.057c-0.117,0.037-0.207,0.096-0.264,0.172c-0.061,0.074-0.096,0.17-0.11,0.281
			c-0.015,0.112-0.021,0.238-0.021,0.379v2.922h-0.928V53.938z"/>
	</g>
	<g>
		<defs>
			<rect id="SVGID_67_" x="-35" y="-146.461" width="209" height="280.873"/>
		</defs>
		<clipPath id="SVGID_68_">
			<use xlink:href="#SVGID_67_"  overflow="visible"/>
		</clipPath>
		<polygon clip-path="url(#SVGID_68_)" fill="#89BA23" points="138.729,47.654 138.729,53.938 137.805,53.938 137.805,51.141 
			134.67,51.141 134.67,53.938 133.741,53.938 133.741,47.654 134.67,47.654 134.67,50.313 137.805,50.313 137.805,47.654 		"/>
	</g>
	<g>
		<defs>
			<rect id="SVGID_69_" x="-35" y="-146.461" width="209" height="280.873"/>
		</defs>
		<clipPath id="SVGID_70_">
			<use xlink:href="#SVGID_69_"  overflow="visible"/>
		</clipPath>
		<polygon clip-path="url(#SVGID_70_)" fill="#89BA23" points="144.174,47.654 144.008,48.486 140.93,48.486 140.93,50.348 
			143.874,50.348 143.708,51.178 140.93,51.178 140.93,53.938 140,53.938 140,47.654 		"/>
	</g>
	<g>
		<defs>
			<rect id="SVGID_71_" x="-35" y="-146.461" width="209" height="280.873"/>
		</defs>
		<clipPath id="SVGID_72_">
			<use xlink:href="#SVGID_71_"  overflow="visible"/>
		</clipPath>
		<path clip-path="url(#SVGID_72_)" fill="#89BA23" d="M147.396,54.098c-0.506,0-0.918-0.06-1.232-0.178
			c-0.314-0.117-0.559-0.29-0.734-0.52c-0.177-0.23-0.3-0.514-0.363-0.848c-0.063-0.337-0.098-0.719-0.098-1.146v-3.752h0.928v3.769
			c0,0.371,0.021,0.679,0.063,0.919c0.042,0.242,0.116,0.43,0.229,0.573c0.112,0.14,0.267,0.237,0.459,0.298
			c0.194,0.055,0.442,0.082,0.752,0.082c0.305,0,0.554-0.027,0.748-0.082c0.196-0.061,0.348-0.158,0.461-0.298
			c0.109-0.144,0.186-0.331,0.229-0.573c0.042-0.24,0.062-0.548,0.062-0.919v-3.769h0.927v3.752c0,0.429-0.032,0.811-0.099,1.146
			c-0.063,0.334-0.186,0.616-0.361,0.848c-0.176,0.229-0.424,0.402-0.74,0.52C148.305,54.038,147.896,54.098,147.396,54.098"/>
	</g>
</g>
</svg>
